<svg width="24" height="24" viewBox="0 0 24 24" fill="none" xmlns="http://www.w3.org/2000/svg">
<path d="M10.1999 19.2H3.59989C2.93715 19.2 2.39989 18.6627 2.39989 18V3.59995C2.39989 2.93721 2.93715 2.39995 3.59989 2.39995H17.9999C18.6626 2.39995 19.1999 2.93721 19.1999 3.59995V10.2" stroke="#4B4B4B" stroke-width="1.8"/>
<path fill-rule="evenodd" clip-rule="evenodd" d="M13.7999 19.8V13.8H19.7999V19.8H13.7999ZM13.1999 21.6C12.5372 21.6 11.9999 21.0627 11.9999 20.4V13.2C11.9999 12.5372 12.5372 12 13.1999 12H20.3999C21.0626 12 21.5999 12.5372 21.5999 13.2V20.4C21.5999 21.0627 21.0626 21.6 20.3999 21.6H13.1999Z" fill="#4B4B4B"/>
</svg>
